<svg width="28" height="25" viewBox="0 0 28 25" fill="none" xmlns="http://www.w3.org/2000/svg">
<path d="M26.7045 17.7234H8.24966L9.17627 15.8361L24.5723 15.8082C25.093 15.8082 25.5392 15.4363 25.6322 14.9219L27.7643 2.98748C27.8201 2.67448 27.7365 2.35218 27.5319 2.10735C27.4308 1.98686 27.3047 1.8898 27.1624 1.82291C27.02 1.75602 26.8649 1.72089 26.7076 1.71997L7.12161 1.65489L6.95426 0.867733C6.84889 0.365687 6.39643 0 5.88199 0H1.09396C0.803826 0 0.525572 0.115256 0.320414 0.320414C0.115256 0.525572 0 0.803826 0 1.09396C0 1.3841 0.115256 1.66235 0.320414 1.86751C0.525572 2.07267 0.803826 2.18793 1.09396 2.18793H4.99566L5.72704 5.66505L7.52758 14.3827L5.2095 18.1666C5.08911 18.3291 5.01661 18.522 5.00018 18.7236C4.98375 18.9251 5.02405 19.1272 5.11652 19.3071C5.30247 19.6758 5.67745 19.9083 6.09272 19.9083H8.03892C7.62402 20.4593 7.39991 21.1306 7.40052 21.8204C7.40052 23.5744 8.82608 25 10.5801 25C12.3342 25 13.7598 23.5744 13.7598 21.8204C13.7598 21.1293 13.5304 20.4568 13.1214 19.9083H18.1139C17.699 20.4593 17.4749 21.1306 17.4755 21.8204C17.4755 23.5744 18.9011 25 20.6551 25C22.4092 25 23.8348 23.5744 23.8348 21.8204C23.8348 21.1293 23.6054 20.4568 23.1964 19.9083H26.7076C27.3088 19.9083 27.8015 19.4186 27.8015 18.8143C27.7997 18.5245 27.6834 18.2471 27.4778 18.0427C27.2723 17.8384 26.9943 17.7236 26.7045 17.7234ZM7.57717 3.81183L25.4215 3.87071L23.6736 13.6575L9.65662 13.6823L7.57717 3.81183ZM10.5801 22.7997C10.0409 22.7997 9.60084 22.3596 9.60084 21.8204C9.60084 21.2811 10.0409 20.8411 10.5801 20.8411C11.1194 20.8411 11.5594 21.2811 11.5594 21.8204C11.5594 22.0801 11.4563 22.3292 11.2726 22.5128C11.089 22.6965 10.8399 22.7997 10.5801 22.7997ZM20.6551 22.7997C20.1159 22.7997 19.6758 22.3596 19.6758 21.8204C19.6758 21.2811 20.1159 20.8411 20.6551 20.8411C21.1944 20.8411 21.6344 21.2811 21.6344 21.8204C21.6344 22.0801 21.5313 22.3292 21.3476 22.5128C21.1639 22.6965 20.9149 22.7997 20.6551 22.7997Z" fill="white"/>
</svg>
