<svg width="36" height="40" viewBox="0 0 36 40" fill="none" xmlns="http://www.w3.org/2000/svg">
<path d="M34.4637 32.5546C35.62 31.5 35.749 29.8164 34.9874 28.561L33.344 25.8788L33.2684 25.9581C24.9218 34.7168 11.0498 35.051 2.29111 26.7044L2.2118 26.6288L0.699434 29.3871C-0.01045 30.6779 0.209097 32.3531 1.41483 33.3508C11.071 41.361 25.2044 41.0205 34.4637 32.5546ZM3.30652 24.6265C3.47033 24.7921 3.63414 24.9576 3.80267 25.1182C11.689 32.6335 24.167 32.3329 31.6822 24.4466C31.8428 24.2781 31.9985 24.1048 32.1541 23.9316L18.1181 0.9748C17.9164 0.640651 17.5483 0.441265 17.1611 0.450593C16.7739 0.459923 16.4159 0.676797 16.2305 1.02028L3.30652 24.6265ZM20.7282 20.0612C21.5643 19.1838 22.9486 19.1505 23.826 19.9866C24.7033 20.8226 24.7367 22.2069 23.9006 23.0843C23.0645 23.9617 21.6802 23.995 20.8029 23.1589C19.9255 22.3228 19.8922 20.9385 20.7282 20.0612ZM11.5097 23.3828C10.6323 22.5467 10.599 21.1624 11.4351 20.2851C12.2711 19.4077 13.6554 19.3744 14.5328 20.2104C15.4101 21.0465 15.4435 22.4308 14.6074 23.3082C13.7713 24.1855 12.387 24.2189 11.5097 23.3828ZM15.9324 13.9777C15.055 13.1416 15.0217 11.7573 15.8578 10.8799C16.6938 10.0026 18.0781 9.96924 18.9555 10.8053C19.8329 11.6414 19.8662 13.0257 19.0301 13.903C18.194 14.7804 16.8097 14.8138 15.9324 13.9777Z" fill="white"/>
</svg>
