<svg width="20" height="20" viewBox="0 0 20 20" fill="none" xmlns="http://www.w3.org/2000/svg">
<path fill-rule="evenodd" clip-rule="evenodd" d="M17.8663 16.1736C19.2326 14.4333 19.9829 12.2889 19.9997 10.0765C20.0165 7.86414 19.2989 5.70867 17.9592 3.94776C16.9708 2.64769 15.679 1.60947 14.1966 0.923854C12.7142 0.238241 11.0865 -0.0738935 9.45559 0.0147381C7.82471 0.10337 6.24037 0.590069 4.84107 1.43229C3.44177 2.27451 2.2701 3.44661 1.4285 4.84613V1.42831H0V6.42721L0.714252 7.14134H5.71402V5.71308H2.58702C3.54131 4.06361 5.01759 2.77864 6.78307 2.06081C8.54855 1.34298 10.5028 1.23312 12.3376 1.74856C14.1725 2.264 15.7835 3.37541 16.9167 4.90753C18.0499 6.43966 18.6408 8.30533 18.5962 10.2104C18.5517 12.1154 17.8741 13.9514 16.6705 15.4288C15.4669 16.9063 13.8056 17.9412 11.9487 18.3702C10.0917 18.7993 8.14476 18.5982 6.41479 17.7986C4.68482 16.999 3.27026 15.6464 2.39417 13.9541L1.12709 14.614C1.89866 16.0978 3.0302 17.3644 4.4181 18.2979C5.806 19.2313 7.40593 19.8017 9.07139 19.9569C10.7369 20.112 12.4146 19.847 13.9512 19.1861C15.4877 18.5251 16.8338 17.4894 17.8663 16.1736ZM13.0651 14.7882L14.0765 13.7784L9.99953 9.70077V4.28482H8.57103V9.99785L8.77959 10.5035L13.0651 14.7882Z" fill="#98989F"/>
</svg>
