<svg width="13" height="12" viewBox="0 0 13 12" fill="none" xmlns="http://www.w3.org/2000/svg">
<g clip-path="url(#clip0_192_1379)">
<path d="M6.49306 11.9861C9.80294 11.9861 12.4861 9.30294 12.4861 5.99306C12.4861 2.68319 9.80294 0 6.49306 0C3.18319 0 0.5 2.68319 0.5 5.99306C0.5 9.30294 3.18319 11.9861 6.49306 11.9861Z" fill="#FBBF67"/>
<path d="M6.00467 4.71563C5.74798 4.01456 5.16542 3.34369 4.36142 3.35944C3.61142 3.37369 3.15917 4.16719 2.91467 4.76794C2.76223 5.14294 3.36917 5.30438 3.5203 4.93481C3.67723 4.54913 3.90861 4.12294 4.33273 3.99356C4.81855 3.84469 5.26311 4.512 5.39886 4.88231C5.53686 5.25919 6.14417 5.09663 6.00467 4.71525M7.09442 4.71C7.35092 4.00894 7.9333 3.33806 8.73767 3.35344C9.48767 3.36806 9.93955 4.16156 10.184 4.76194C10.3369 5.13694 9.72955 5.29875 9.5788 4.92919C9.42186 4.54313 9.19011 4.11731 8.76617 3.98794C8.27998 3.83944 7.83542 4.50675 7.70005 4.87706C7.56186 5.25394 6.95511 5.09063 7.09442 4.71ZM10.8116 6.5385C10.6955 6.5385 10.3162 6.51356 10.262 6.57788C10.2594 6.58088 10.2577 6.57769 10.2551 6.579C10.2435 6.59438 10.2294 6.60094 10.2199 6.62044C8.63042 9.82106 4.37361 9.84863 2.78436 6.64931C2.74105 6.56213 2.63511 6.5385 2.54136 6.5385H2.19261C1.96273 6.5385 1.86336 6.74325 1.94961 6.93169C3.76967 10.9178 9.23492 10.9339 11.0548 6.94706C11.1409 6.75769 11.0417 6.5385 10.8116 6.5385Z" fill="#633D19"/>
<path d="M12.17 8.14125C12.065 7.79569 11.8445 7.55344 11.5752 7.36144C11.5492 7.32622 11.519 7.2943 11.4852 7.26638L10.9424 6.84431C10.6366 6.606 9.16567 8.70863 9.32017 8.76263C9.94642 8.97994 9.92486 9.52425 10.4407 9.90206C10.8766 10.2203 11.4489 10.0391 11.821 9.71738C12.2615 9.33675 12.3288 8.664 12.17 8.14125Z" fill="#F45BA1"/>
</g>
<defs>
<clipPath id="clip0_192_1379">
<rect width="12" height="12" fill="white" transform="translate(0.5)"/>
</clipPath>
</defs>
</svg>
