<svg width="22" height="22" viewBox="0 0 22 22" fill="none" xmlns="http://www.w3.org/2000/svg">
<path d="M10.0211 3.02258H3.77571C3.03955 3.02258 2.33354 3.31397 1.81299 3.83266C1.29244 4.35134 1 5.05482 1 5.78834V18.2343C1 18.9678 1.29244 19.6713 1.81299 20.19C2.33354 20.7086 3.03955 21 3.77571 21H17.6543C18.3905 21 19.0965 20.7086 19.617 20.19C20.1376 19.6713 20.43 18.9678 20.43 18.2343V12.0113" stroke="#98989F" stroke-linecap="round" stroke-linejoin="round"/>
<path d="M17.773 4.40537L19.0957 5.78825M20.5489 1.59397C20.9189 1.97517 21.1238 2.48595 21.1194 3.01623C21.1149 3.54652 20.9016 4.05384 20.5253 4.42887L10.8333 14.0855L6.66943 15.4684L8.05738 11.3198L17.755 1.57599C18.0959 1.2337 18.5521 1.02953 19.0354 1.00296C19.5186 0.976395 19.9946 1.12932 20.3712 1.43217L20.5489 1.59397Z" stroke="#98989F" stroke-linecap="round" stroke-linejoin="round"/>
</svg>
