<svg width="20" height="20" viewBox="0 0 20 20" fill="none" xmlns="http://www.w3.org/2000/svg">
<path d="M19.6096 15.1692L17.9092 13.8462V8.71795C17.9092 5.56923 15.7474 2.93333 11.9775 2.2359V1.53846C11.9775 0.68718 11.0943 0 10.0002 0C8.90615 0 8.02298 0.68718 8.02298 1.53846V2.2359C4.23985 2.93333 2.09124 5.55897 2.09124 8.71795V13.8462L0.390806 15.1692C-0.439638 15.8154 0.140354 16.9231 1.31352 16.9231H18.6737C19.8601 16.9231 20.4401 15.8154 19.6096 15.1692ZM15.2729 14.8718H4.72757V8.71795C4.72757 6.17436 6.718 4.10256 10.0002 4.10256C13.2825 4.10256 15.2729 6.17436 15.2729 8.71795V14.8718ZM10.0002 20C11.4502 20 12.6366 19.0769 12.6366 17.9487H7.3639C7.3639 18.4928 7.64165 19.0145 8.13606 19.3992C8.63047 19.7839 9.30103 20 10.0002 20Z" fill="#98989F"/>
</svg>
