<svg width="20" height="26" viewBox="0 0 20 26" fill="none" xmlns="http://www.w3.org/2000/svg">
<path d="M19.1505 11.5028C18.599 10.2615 17.7973 9.14734 16.7954 8.23007L15.9687 7.47155C15.9407 7.4465 15.9069 7.42873 15.8703 7.41978C15.8338 7.41084 15.7956 7.411 15.7592 7.42026C15.7227 7.42952 15.6891 7.44758 15.6612 7.47287C15.6334 7.49816 15.6121 7.5299 15.5994 7.5653L15.2301 8.62496C15 9.28973 14.5767 9.96871 13.9773 10.6363C13.9375 10.6789 13.892 10.6903 13.8608 10.6931C13.8295 10.696 13.7812 10.6903 13.7386 10.6505C13.6988 10.6164 13.679 10.5653 13.6818 10.5142C13.7869 8.80394 13.2756 6.87496 12.1562 4.77553C11.2301 3.03121 9.94317 1.67042 8.33522 0.721556L7.16192 0.0312163C7.00852 -0.0596927 6.81249 0.0596252 6.82102 0.238602L6.88351 1.60224C6.92613 2.53405 6.81817 3.35792 6.56249 4.04258C6.24999 4.88064 5.80113 5.65905 5.22727 6.35792C4.8279 6.84361 4.37525 7.28291 3.87784 7.66757C2.67984 8.5885 1.70572 9.76852 1.02841 11.1193C0.352766 12.4818 0.00082432 13.9819 0 15.5028C0 16.8437 0.264204 18.142 0.786931 19.3664C1.29166 20.5453 2.02005 21.6152 2.93182 22.517C3.85227 23.4261 4.92045 24.142 6.11079 24.6391C7.34374 25.1562 8.65056 25.4176 9.99999 25.4176C11.3494 25.4176 12.6562 25.1562 13.8892 24.642C15.0766 24.1477 16.1564 23.4269 17.0682 22.5198C17.9886 21.6107 18.7102 20.5482 19.213 19.3693C19.735 18.1482 20.0027 16.8336 20 15.5056C20 14.1193 19.7159 12.7727 19.1505 11.5028Z" fill="white"/>
</svg>
