<svg width="27" height="28" viewBox="0 0 27 28" fill="none" xmlns="http://www.w3.org/2000/svg">
<path d="M13.125 0.875C5.88 0.875 0 6.755 0 14C0 21.245 5.88 27.125 13.125 27.125H19.6875V24.5H13.125C7.42875 24.5 2.625 19.6963 2.625 14C2.625 8.30375 7.42875 3.5 13.125 3.5C18.8213 3.5 23.625 8.30375 23.625 14V15.8769C23.625 16.9137 22.6931 17.9375 21.6562 17.9375C20.6194 17.9375 19.6875 16.9137 19.6875 15.8769V14C19.6875 10.3775 16.7475 7.4375 13.125 7.4375C9.5025 7.4375 6.5625 10.3775 6.5625 14C6.5625 17.6225 9.5025 20.5625 13.125 20.5625C14.9362 20.5625 16.59 19.8275 17.7712 18.6331C18.6244 19.8013 20.0944 20.5625 21.6562 20.5625C24.2419 20.5625 26.25 18.4625 26.25 15.8769V14C26.25 6.755 20.37 0.875 13.125 0.875ZM13.125 17.9375C10.9462 17.9375 9.1875 16.1788 9.1875 14C9.1875 11.8212 10.9462 10.0625 13.125 10.0625C15.3038 10.0625 17.0625 11.8212 17.0625 14C17.0625 16.1788 15.3038 17.9375 13.125 17.9375Z" fill="#767676"/>
</svg>
