<svg width="207" height="200" fill="none" xmlns="http://www.w3.org/2000/svg"><mask id="a" style="mask-type:alpha" maskUnits="userSpaceOnUse" x="0" y="0" width="207" height="200"><path d="M206.67 0H0v200h206.67V0z" fill="#fff"/></mask><g mask="url(#a)"><path d="m113.44 192.41.41 6.67c27.51 1.38 53.55-4.72 68.34-34.72l-5.42-4.1c-16.07 18.21-38.72 29.74-63.33 32.21V192.41z" fill="#5B2C2C"/><path d="m128.46 169.85 7.67.92-1.06 8.62c13.69-5.03 25.76-13.28 35.32-24.05-8.91-6.77-19.52-11.59-26.73-20.31l-3.08 8.36-7.3-2.51 3.95-10.77c-12.13-5.85-19.7-14.72-29.26-22.26l2.3 35.18c2.07.41 3.95 1.08 5.65 2.05 2.89 1.64 5.33 4.41 5.33 7.95s-2.43 6.31-5.33 7.95c-1.33.77-2.8 1.33-4.32 1.74l1.42 21.85c4.78-.51 9.46-1.38 14.05-2.56l1.52-12.1-.14-.05.01-.01z" fill="#4B48E3"/><path d="M139.71 85.38a12.726 12.726 0 0 1-2.16-7.13c0-6.26 4.5-12 10.93-12s10.93 5.74 10.93 12c0 .51 0 .97-.09 1.54l27.46-7.95c-7.67-21.44-23.88-39.03-45.01-48.87-7.85 24.67-17.91 48.41-31.41 70.87l29.35-8.46zM174.61 60l1.61 11.49-7.67.97-1.61-11.49 7.67-.97zm-23.97-22.36 5.24 8.36-6.61 3.9-5.24-8.36 6.61-3.9z" fill="#E34848"/><path d="M103.52 192.92c-20.62 0-40.74-6.46-57.32-18.36l-4.32 5.18c15.52 18.72 38.76 21.49 61.63 19.79.87-.1 1.7 0 2.57 0l-.41-6.67h-2.16v.05l.01.01zM194.59 69.54l6.57-1.9c-6.2-27.13-24.07-48.82-53.46-58.05l-2.71 6.1c23.33 10.77 41.2 30.15 49.6 53.85z" fill="#5B2C2C"/><path d="m126.3 97.13-14.51 4.2c19.38 17.85 41.98 32.31 63.33 48.1 10.24-14.46 13.5-31.85 16.49-49.64 1.15-6.92-.92-14-2.66-20.77l-53.27 15.44 4.32 2.97-4.46 6.05-9.18-6.31-.05-.05-.01.01zm29.21 17.23 6.25 5.18c-.41-2.21-.28-4.51.46-6.77 1.01-3.02 2.85-5.54 5.28-7.18 1.7-1.18 3.77-1.9 5.88-1.95 1.01 0 1.98.1 2.99.41 3.08.92 5.28 3.38 6.34 6.15 1.01 2.72 1.01 5.79 0 8.82-.96 2.97-2.85 5.54-5.24 7.23-2.48 1.64-5.69 2.46-8.86 1.49-1.1-.31-2.11-.87-2.99-1.54l-3.35 3.69-11.85-9.9 5.05-5.64h.05l-.01.01z" fill="#96E348"/><path d="m203.41 74.82-6.61 1.85c1.97 7.54 3.03 15.28 3.03 23.08 0 19.59-6.34 38.67-18.23 54.56l5.42 4.1c12.81-17.03 19.7-37.59 19.7-58.67 0-8.41-1.06-16.82-3.26-24.92h-.05z" fill="#5B2C2C"/><path d="M103.84 155.59c-.01-.72-.09-1.45-.17-2.16-.06-.6-.17-1.17-.3-1.76-.1-.44-.19-.89-.19-1.35-1.57.25-2.92.7-3.85 1.22-1.38.77-1.52 1.39-1.52 1.49 0 .1.14.72 1.52 1.49 1.05.59 2.65 1.09 4.5 1.3v-.23h.01z" fill="#CD48E3"/><path d="M111.92 151.54c-.54-.3-1.23-.57-2.01-.8.03.95.09 1.89.15 2.84.03.56.04 1.12.05 1.69.7-.22 1.33-.47 1.82-.74 1.38-.77 1.52-1.38 1.52-1.49 0-.11-.14-.72-1.52-1.49l-.01-.01z" fill="#4B48E3"/><path d="M7.3 99.79v-2.1l-6.84-.41v2.51c-2.2 29.23 3.9 57.69 35.5 75.33l4.32-5.18c-20.9-17.68-32.93-43.22-32.93-70.15H7.3zM103.52 6.67c11.71 0 23.38 2.05 34.35 6.1l2.71-6.1C128.78 2.26 116.19 0 103.52 0h-.23C83.73 0 64.53 5.49 48.04 15.69l3.9 5.49c15.43-9.49 33.3-14.51 51.57-14.51h.01z" fill="#5B2C2C"/><path d="m105.17 185.03-1.42-21.69c-3.08-.2-5.92-.97-8.31-2.36-2.89-1.64-5.33-4.41-5.33-7.95s2.43-6.31 5.33-7.95c2.02-1.18 4.41-1.9 7.03-2.26l-2.16-33.18-49 58.77c15.11 10.77 33.43 16.56 52.22 16.56h1.65v.05l-.01.01zm-22.69-14.98-12.08-1.08.69-7.49 12.08 1.08-.69 7.49z" fill="#CD48E3"/><path d="m45.6 25.38-3.9-5.49C9.51 36.67 2.39 62.05.92 89.79l6.89.41c2.76-25.74 16.44-49.23 37.84-64.82h-.05z" fill="#5B2C2C"/><path d="m45.33 163.79 50.47-60.72-55.48-3.38-10.56 10.2-5.47-5.33 5.69-5.49-14.51-.87v1.59c0 9.13 1.52 18.21 4.5 26.92l4.73-9.8 7.03 3.18-7.81 16.15a85.942 85.942 0 0 0 21.4 27.59v-.05l.01.01zm15.89-57.85 12.77 4.67-2.76 6.97-12.77-4.67 2.76-6.97zm-24.94 24.21c2.16-4.31 6.66-6.62 11.34-6.56 1.84 0 3.67.46 5.42 1.23 6.15 2.87 9.14 10 6.2 15.95-2.99 6-10.61 8.21-16.76 5.33-6.15-2.87-9.14-10-6.2-15.95z" fill="#FF6B00"/><path d="M44.93 55h-8.36l3.86-23.27h8.2c2.34 0 4.28.48 5.83 1.43 1.55.95 2.65 2.32 3.28 4.1.64 1.77.75 3.89.34 6.35-.39 2.38-1.18 4.42-2.35 6.12-1.17 1.7-2.68 3-4.51 3.91-1.83.9-3.93 1.35-6.3 1.35l.01.01zm-2.74-4.22h3.02c1.46 0 2.74-.27 3.84-.82 1.11-.55 2.01-1.39 2.72-2.52.71-1.14 1.22-2.59 1.51-4.36.28-1.68.26-3.05-.06-4.09-.31-1.05-.91-1.82-1.81-2.31-.89-.49-2.07-.74-3.52-.74h-3.24l-2.47 14.84h.01zM61.13 55l3.86-23.27h15.68l-.68 4.06H69.23l-.91 5.55h9.95l-.68 4.06h-9.95l-.91 5.56h10.81l-.68 4.06H61.13V55zm29.24 0h-8.36l3.86-23.27h8.2c2.34 0 4.28.48 5.83 1.43 1.55.95 2.65 2.32 3.28 4.1.64 1.77.75 3.89.34 6.35-.39 2.38-1.18 4.42-2.35 6.12-1.17 1.7-2.68 3-4.51 3.91-1.83.9-3.93 1.35-6.3 1.35l.01.01zm-2.74-4.22h3.02c1.46 0 2.74-.27 3.84-.82 1.11-.55 2.01-1.39 2.72-2.52.71-1.14 1.22-2.59 1.51-4.36.28-1.68.26-3.05-.06-4.09-.31-1.05-.91-1.82-1.81-2.31-.89-.49-2.07-.74-3.52-.74h-3.24l-2.47 14.84h.01zM109.26 55h-5.27l11.9-23.27h6.34L126.39 55h-5.27l-2.83-17.95h-.18L109.27 55h-.01zm1.21-9.15h12.45l-.66 3.84h-12.45l.66-3.84zM20.57 94.83l3.86-23.27h9.18c1.76 0 3.2.34 4.33 1.01 1.14.67 1.93 1.59 2.39 2.78.46 1.18.57 2.55.32 4.09-.26 1.55-.82 2.92-1.68 4.1-.86 1.17-1.97 2.09-3.34 2.75-1.37.66-2.95.99-4.75.99h-5.85l.65-3.94h5.06c.95 0 1.77-.16 2.44-.49.68-.33 1.22-.79 1.62-1.38.4-.59.66-1.27.78-2.03.13-.78.09-1.46-.12-2.03-.21-.58-.6-1.02-1.17-1.34-.56-.33-1.31-.49-2.26-.49h-3.32l-3.22 19.25h-4.92zm21.91 0 2.91-17.45h4.84l-2.91 17.45h-4.84zm5.83-19.73c-.72 0-1.31-.24-1.78-.72-.46-.48-.65-1.06-.57-1.73.08-.68.41-1.26.98-1.73.57-.48 1.21-.72 1.93-.72s1.31.24 1.76.72c.45.47.64 1.05.57 1.73-.08.67-.4 1.24-.97 1.73-.56.48-1.2.72-1.92.72zm4.11 19.73.47-2.89 10.28-10.58.05-.12h-8.25l.65-3.86h14.09l-.5 3.15-9.74 10.32-.05.12h8.32l-.62 3.86h-14.7zm19.62 0 .47-2.89 10.28-10.58.05-.12h-8.25l.65-3.86h14.09l-.5 3.15-9.74 10.32-.05.12h8.32l-.62 3.86h-14.7zm24.61.33c-1.11 0-2.06-.19-2.88-.58-.8-.39-1.39-.98-1.77-1.75-.38-.77-.47-1.73-.28-2.88.17-.97.48-1.78.94-2.43.47-.66 1.04-1.19 1.72-1.59.67-.4 1.42-.71 2.24-.92.83-.21 1.68-.36 2.56-.43 1.02-.11 1.84-.21 2.48-.31.64-.1 1.12-.24 1.44-.42.32-.19.51-.47.58-.84v-.07c.11-.71-.02-1.27-.4-1.66-.37-.4-.97-.6-1.78-.6-.86 0-1.6.19-2.2.57-.6.38-1.03.86-1.28 1.44l-4.41-.36c.39-1.06.99-1.98 1.78-2.75.8-.78 1.77-1.38 2.9-1.8 1.13-.42 2.39-.64 3.8-.64.97 0 1.88.11 2.72.34.85.23 1.58.58 2.19 1.06.62.48 1.07 1.09 1.34 1.84.28.74.34 1.63.17 2.67l-1.97 11.77h-4.59l.41-2.42h-.14c-.37.55-.83 1.03-1.36 1.44-.54.41-1.15.73-1.85.97-.7.23-1.48.34-2.34.34l-.02.01zm1.94-3.34c.7 0 1.35-.14 1.94-.42.6-.29 1.09-.67 1.48-1.16.39-.48.64-1.03.75-1.65l.3-1.85c-.15.1-.37.19-.66.26-.28.08-.59.15-.92.22-.33.06-.66.12-.99.17-.33.05-.63.09-.9.14-.58.08-1.11.22-1.57.4-.46.18-.84.43-1.12.74-.29.3-.47.68-.53 1.14-.11.66.05 1.16.47 1.51.42.34 1.01.51 1.76.51l-.01-.01z" fill="#fff"/></g></svg>