<svg width="25" height="26" viewBox="0 0 25 26" fill="none" xmlns="http://www.w3.org/2000/svg">
<path fill-rule="evenodd" clip-rule="evenodd" d="M12.5 25.5C19.4037 25.5 25 19.9037 25 13C25 6.09625 19.4037 0.5 12.5 0.5C5.59625 0.5 0 6.09625 0 13C0 19.9037 5.59625 25.5 12.5 25.5ZM19.2138 9.04375C19.2722 8.98351 19.318 8.9121 19.3482 8.83379C19.3785 8.75548 19.3927 8.67188 19.39 8.58797C19.3872 8.50406 19.3676 8.42156 19.3322 8.3454C19.2969 8.26924 19.2466 8.20098 19.1843 8.14469C19.122 8.0884 19.049 8.04524 18.9697 8.01779C18.8903 7.99033 18.8063 7.97914 18.7225 7.98489C18.6388 7.99063 18.557 8.0132 18.4822 8.05123C18.4073 8.08926 18.3409 8.14198 18.2869 8.20625L10.8 16.4794L6.68125 12.5475C6.56141 12.433 6.40097 12.3707 6.23523 12.3745C6.0695 12.3782 5.91204 12.4477 5.7975 12.5675C5.68296 12.6873 5.62072 12.8478 5.62447 13.0135C5.62822 13.1793 5.69766 13.3367 5.8175 13.4513L10.4012 17.8263L10.8656 18.27L11.2962 17.7938L19.2131 9.04375H19.2138Z" fill="white"/>
</svg>
