<svg width="13" height="12" viewBox="0 0 13 12" fill="none" xmlns="http://www.w3.org/2000/svg">
<g clip-path="url(#clip0_192_1363)">
<path d="M9.52693 6.09148C9.49775 6.10992 9.46756 6.12673 9.43651 6.14182L9.43522 6.14236L9.37126 6.17325L9.2942 6.20965L9.2706 6.22057L9.24592 6.23067L9.19173 6.25261C9.11455 6.28503 9.02394 6.31568 8.92039 6.34859C8.86951 6.36312 8.81492 6.37922 8.75816 6.3942C8.70221 6.40746 8.64282 6.42239 8.58196 6.43542C8.52179 6.447 8.45814 6.46092 8.39413 6.47124C8.33028 6.48122 8.26337 6.49336 8.19676 6.50114L8.0949 6.5142C8.06064 6.51835 8.02649 6.52132 7.99171 6.52493C7.92198 6.53255 7.85193 6.53759 7.7807 6.5427C7.70924 6.54842 7.6381 6.5506 7.56536 6.55463C7.4934 6.55671 7.4203 6.55964 7.3475 6.56035C7.20167 6.56246 7.05496 6.56114 6.90946 6.55678C6.32732 6.53977 5.76355 6.47513 5.34046 6.41121C5.23459 6.3949 5.13768 6.37934 5.05121 6.36408C4.97596 6.35107 4.90086 6.33718 4.82593 6.32241C4.76558 6.31057 4.7027 6.29775 4.67514 6.2914L4.62782 6.28076C4.24745 6.19517 4.0085 5.81742 4.0941 5.43706C4.14587 5.20699 4.30459 5.02882 4.50606 4.94274C4.47291 4.8597 4.4559 4.7711 4.45595 4.68169C4.45595 4.35703 4.67537 4.0838 4.97396 4.00172C4.90793 3.8921 4.87312 3.76651 4.8733 3.63853C4.8733 3.249 5.18907 2.93323 5.57861 2.93323C5.58381 2.93323 5.59375 2.93318 5.60757 2.93295C5.59096 2.90165 5.57674 2.86913 5.56503 2.83568C5.53657 2.79739 5.51257 2.75597 5.4935 2.71224C5.35555 2.39529 5.50065 2.02653 5.8176 1.88855C5.8515 1.87403 5.88655 1.86233 5.92239 1.85358L6.05275 1.82253C6.07028 1.81817 6.089 1.81421 6.11089 1.80844L6.18322 1.78849L6.26399 1.76372C6.29155 1.75409 6.32167 1.74481 6.35148 1.73367C6.41253 1.71289 6.47586 1.68729 6.54109 1.65809C6.60773 1.62816 6.67231 1.59383 6.7344 1.55534C6.79721 1.51596 6.85848 1.47289 6.9133 1.42402C6.94157 1.39995 6.96639 1.37396 6.99149 1.34749C7.01502 1.32056 7.0382 1.29284 7.05812 1.2638C7.09798 1.207 7.1292 1.14461 7.15077 1.07867C7.17156 1.01407 7.18346 0.946409 7.18215 0.880315C7.18107 0.814432 7.16931 0.749604 7.14744 0.69319C7.12665 0.636284 7.0978 0.585752 7.06435 0.548205C7.04879 0.530248 7.0315 0.513857 7.01275 0.499268C6.99595 0.486959 6.97821 0.476002 6.95968 0.466502C6.92457 0.449955 6.88993 0.442151 6.85961 0.440932C6.8293 0.439666 6.8038 0.444424 6.78594 0.447213L6.75859 0.454127L6.75315 0.45551C6.72684 0.462153 6.69907 0.459808 6.67425 0.448848C6.64943 0.437888 6.62899 0.418942 6.61617 0.395024C6.60336 0.371107 6.59891 0.343592 6.60354 0.316856C6.60817 0.29012 6.6216 0.2657 6.64171 0.247479L6.67726 0.215252C6.70208 0.195612 6.73991 0.165776 6.79881 0.140041C6.8571 0.113557 6.93707 0.0932601 7.03253 0.0930023C7.12754 0.093307 7.235 0.118432 7.33869 0.16887C7.44238 0.219963 7.54039 0.296791 7.62582 0.393635C7.70971 0.491463 7.77985 0.609518 7.8286 0.742244C7.87609 0.875112 7.9015 1.02174 7.90222 1.17167C7.90168 1.21807 7.89887 1.26442 7.89381 1.31056C8.04262 1.3372 8.17886 1.41116 8.28226 1.52145C8.42961 1.67813 8.49123 1.88438 8.46927 2.08261C8.58515 2.11864 8.68972 2.1841 8.77276 2.2726C8.99989 2.51414 9.02364 2.87339 8.85071 3.13957C8.99005 3.16969 9.11692 3.24151 9.21444 3.34549C9.4813 3.62925 9.46759 4.07562 9.18381 4.34248C9.16442 4.36071 9.14453 4.37806 9.12479 4.39568C9.39779 4.42268 9.65598 4.57053 9.81383 4.82044C10.0857 5.25061 9.9572 5.81972 9.52693 6.09148Z" fill="#F4E3C1"/>
<path d="M8.62619 11.1994L8.61431 11.1996C8.54716 11.6478 7.86956 12 7.04299 12C6.21637 12 5.53872 11.6478 5.47165 11.1995L5.46574 11.1994L4.85004 7.33041H9.2419L8.62619 11.1994Z" fill="#FFD45F"/>
<path d="M9.2419 7.62225H4.85004L4.96371 8.33658C5.20861 8.42002 5.51318 8.49778 5.87529 8.55366L5.3332 9.09575L5.09355 8.8561L5.15201 9.22409L5.17844 9.25053L5.15925 9.26972L5.20167 9.53684L5.3332 9.40531L5.93756 10.0097L5.36733 10.5799L5.43867 11.029L5.93756 11.5279L5.80106 11.6644C5.85965 11.7059 5.92481 11.7443 5.99576 11.7793L6.09234 11.6827L6.30942 11.8998C6.4305 11.9351 6.56088 11.9619 6.69804 11.9788L6.24712 11.5279L6.85148 10.9236L7.45584 11.5279L6.98451 11.9993C7.00397 11.9997 7.0234 12 7.04301 12C7.13252 12 7.22013 11.9957 7.30556 11.9877L7.6106 11.6827L7.81589 11.888C7.89237 11.8642 7.96733 11.8358 8.04033 11.8029L7.76536 11.5279L8.36972 10.9235L8.62889 11.1827L8.67138 10.9157L8.5245 10.7688L8.727 10.5663L8.78557 10.1982L8.36974 10.614L7.76538 10.0096L8.36974 9.40528L8.83734 9.87289L8.87983 9.60584L8.5245 9.2505L9.01432 8.76068L9.07685 8.36768C9.09351 8.36201 9.10994 8.35629 9.12602 8.35055L9.2419 7.62225ZM7.04299 8.63909C7.13526 8.63909 7.22472 8.63792 7.31151 8.63567L6.85146 9.09572L6.36726 8.61153C6.59203 8.63006 6.81746 8.63925 7.04299 8.63909ZM5.48796 9.2505L6.09232 8.64614L6.69668 9.2505L6.09232 9.85486L5.48796 9.2505ZM6.09232 11.3731L5.48796 10.7688L6.09232 10.1644L6.69668 10.7688L6.09232 11.3731ZM6.24708 10.0096L6.85143 9.40526L7.45579 10.0096L6.85143 10.614L6.24708 10.0096ZM8.21493 10.7688L7.61058 11.3731L7.00622 10.7688L7.61058 10.1644L8.21493 10.7688ZM7.61058 9.85486L7.00622 9.2505L7.61058 8.64614L8.21493 9.2505L7.61058 9.85486ZM8.97405 8.49136L8.36969 9.09572L7.87729 8.60332C8.29441 8.56521 8.6324 8.49968 8.90433 8.42166L8.97405 8.49136Z" fill="#EABC54"/>
<path d="M9.95905 6.30422L9.73529 7.43702C9.7254 7.48697 9.70254 7.53343 9.66901 7.57175C9.63547 7.61006 9.59245 7.63888 9.54425 7.6553C9.53935 7.66096 9.534 7.66621 9.52824 7.671C9.24355 7.90497 8.54009 8.2372 7.04298 8.2372C5.54586 8.2372 4.67696 7.82226 4.48079 7.62612C4.44737 7.60512 4.41859 7.57753 4.39621 7.54501C4.37383 7.5125 4.35834 7.47576 4.35066 7.43705L4.12691 6.30424C4.08891 6.11194 4.26777 5.94682 4.45604 6.00138C4.85363 6.11662 5.61041 6.23442 7.04298 6.23442C8.47555 6.23442 9.23232 6.11662 9.62991 6.00138C9.81816 5.9468 9.99702 6.11191 9.95905 6.30422Z" fill="#FFD45F"/>
<path d="M7.08776 7.06831C5.97153 7.06831 5.14463 6.99265 4.62999 6.84352C4.50528 6.80735 4.43346 6.67695 4.46963 6.55221C4.50579 6.42748 4.63624 6.35564 4.76091 6.39183C5.08547 6.48591 5.7526 6.59803 7.08776 6.59803C7.2176 6.59803 7.32288 6.70332 7.32288 6.83316C7.32288 6.963 7.2176 7.06831 7.08776 7.06831Z" fill="#FFE6A9"/>
</g>
<defs>
<clipPath id="clip0_192_1363">
<rect width="12" height="12" fill="white" transform="translate(0.5)"/>
</clipPath>
</defs>
</svg>
