<svg width="62" height="60" viewBox="0 0 62 60" fill="none" xmlns="http://www.w3.org/2000/svg">
<mask id="mask0_22_13" style="mask-type:alpha" maskUnits="userSpaceOnUse" x="0" y="0" width="62" height="60">
<path d="M62 0H0V59.999H62V0Z" fill="white"/>
</mask>
<g mask="url(#mask0_22_13)">
<path d="M34.0314 57.7221L34.1544 59.7231C42.4073 60.1371 50.2192 58.3071 54.6561 49.3072L53.0301 48.0773C48.2092 53.5402 41.4143 56.9991 34.0314 57.7401V57.7251V57.7221Z" fill="#662B2B"/>
<path d="M38.5374 50.9542L40.8383 51.2302L40.5203 53.8162C44.6273 52.3072 48.2482 49.8322 51.1162 46.6013C48.4432 44.5703 45.2603 43.1243 43.0973 40.5084L42.1733 43.0163L39.9833 42.2634L41.1683 39.0324C37.5294 37.2774 35.2584 34.6165 32.3905 32.3545L33.0804 42.9083C33.7014 43.0313 34.2654 43.2323 34.7754 43.5233C35.6424 44.0153 36.3744 44.8463 36.3744 45.9083C36.3744 46.9703 35.6454 47.8013 34.7754 48.2933C34.3764 48.5242 33.9354 48.6922 33.4794 48.8152L33.9054 55.3701C35.3394 55.2171 36.7434 54.9561 38.1204 54.6022L38.5764 50.9722L38.5344 50.9572L38.5374 50.9542Z" fill="#4B48E3"/>
<path d="M41.9123 25.6136C41.4983 24.9986 41.2643 24.2606 41.2643 23.4747C41.2643 21.5967 42.6143 19.8747 44.5433 19.8747C46.4722 19.8747 47.8222 21.5967 47.8222 23.4747C47.8222 23.6277 47.8222 23.7657 47.7952 23.9367L56.0331 21.5517C53.7321 15.1198 48.8692 9.84288 42.5303 6.89093C40.1753 14.2918 37.1574 21.4137 33.1074 28.1516L41.9123 25.6136ZM52.3821 17.9998L52.8651 21.4467L50.5642 21.7377L50.0812 18.2907L52.3821 17.9998ZM45.1912 11.2919L46.7632 13.7998L44.7803 14.9698L43.2083 12.4618L45.1912 11.2919Z" fill="#E34848"/>
<path d="M31.0555 57.8751C24.8696 57.8751 18.8337 55.9371 13.8598 52.3672L12.5638 53.9212C17.2197 59.5371 24.1916 60.3681 31.0525 59.8581C31.3135 59.8281 31.5625 59.8581 31.8235 59.8581L31.7005 57.8571H31.0525V57.8721L31.0555 57.8751Z" fill="#662B2B"/>
<path d="M58.3761 20.8617L60.347 20.2917C58.4871 12.1528 53.1261 5.64594 44.3093 2.87698L43.4963 4.70695C50.4952 7.9379 55.8561 13.7518 58.3761 20.8617Z" fill="#662B2B"/>
<path d="M37.8894 29.1386L33.5365 30.3985C39.3504 35.7534 46.1302 40.0914 52.5351 44.8283C55.6071 40.4904 56.5851 35.2735 57.4821 29.9365C57.8271 27.8606 57.2061 25.7366 56.6841 23.7056L40.7033 28.3376L41.9993 29.2286L40.6613 31.0435L37.9074 29.1506L37.8924 29.1356L37.8894 29.1386ZM46.6522 34.3075L48.5272 35.8614C48.4042 35.1985 48.4432 34.5085 48.6652 33.8305C48.9682 32.9245 49.5202 32.1685 50.2492 31.6765C50.7592 31.3225 51.3802 31.1065 52.0132 31.0915C52.3161 31.0915 52.6071 31.1215 52.9101 31.2145C53.8341 31.4905 54.4941 32.2285 54.8121 33.0595C55.1151 33.8755 55.1151 34.7965 54.8121 35.7054C54.5241 36.5964 53.9571 37.3674 53.2401 37.8744C52.4961 38.3664 51.5332 38.6124 50.5822 38.3214C50.2522 38.2284 49.9492 38.0604 49.6852 37.8594L48.6802 38.9664L45.1253 35.9964L46.6402 34.3045H46.6552L46.6522 34.3075Z" fill="#96E348"/>
<path d="M61.022 22.4457L59.039 23.0007C59.63 25.2626 59.948 27.5846 59.948 29.9245C59.948 35.8014 58.0461 41.5254 54.4791 46.2923L56.1051 47.5223C59.948 42.4133 62.015 36.2454 62.015 29.9215C62.015 27.3986 61.697 24.8756 61.037 22.4457H61.022Z" fill="#662B2B"/>
<path d="M31.1515 46.6763C31.1485 46.4603 31.1245 46.2413 31.1005 46.0283C31.0825 45.8483 31.0495 45.6773 31.0105 45.5003C30.9805 45.3683 30.9535 45.2333 30.9535 45.0953C30.4825 45.1703 30.0775 45.3053 29.7985 45.4613C29.3845 45.6923 29.3425 45.8783 29.3425 45.9083C29.3425 45.9383 29.3845 46.1243 29.7985 46.3553C30.1135 46.5323 30.5935 46.6823 31.1485 46.7453C31.1485 46.7213 31.1485 46.7003 31.1485 46.6763H31.1515Z" fill="#CD48E3"/>
<path d="M33.5754 45.4613C33.4134 45.3713 33.2065 45.2903 32.9725 45.2213C32.9815 45.5063 32.9995 45.7883 33.0175 46.0733C33.0265 46.2413 33.0295 46.4093 33.0325 46.5803C33.2425 46.5143 33.4314 46.4393 33.5784 46.3583C33.9924 46.1273 34.0344 45.9443 34.0344 45.9113C34.0344 45.8783 33.9924 45.6953 33.5784 45.4643L33.5754 45.4613Z" fill="#4B48E3"/>
<path d="M2.18995 29.9365V29.3065L0.137978 29.1835V29.9365C-0.522011 38.7054 1.30796 47.2433 10.7878 52.5352L12.0838 50.9812C5.81389 45.6773 2.20494 38.0154 2.20494 29.9365H2.18995Z" fill="#662B2B"/>
<path d="M31.0555 2.00097C34.5684 2.00097 38.0694 2.61596 41.3603 3.83094L42.1733 2.00097C38.6334 0.677989 34.8564 0 31.0555 0H30.9865C25.1186 0 19.3587 1.64697 14.4118 4.70692L15.5817 6.3539C20.2107 3.50694 25.5716 2.00097 31.0525 2.00097H31.0555Z" fill="#662B2B"/>
<path d="M31.5505 55.5081L31.1245 49.0013C30.2005 48.9413 29.3485 48.7103 28.6315 48.2933C27.7645 47.8013 27.0325 46.9703 27.0325 45.9083C27.0325 44.8463 27.7615 44.0153 28.6315 43.5233C29.2375 43.1693 29.9545 42.9534 30.7405 42.8454L30.0925 32.8915L15.3927 50.5222C19.9257 53.7532 25.4216 55.4902 31.0585 55.4902H31.5535V55.5051L31.5505 55.5081ZM24.7436 51.0142L21.1196 50.6902L21.3266 48.4433L24.9506 48.7673L24.7436 51.0142Z" fill="#CD48E3"/>
<path d="M13.6798 7.61392L12.5098 5.96695C2.85293 11.0009 0.716963 18.6147 0.27597 26.9366L2.34294 27.0596C3.17092 19.3377 7.27486 12.2908 13.6948 7.61392H13.6798Z" fill="#662B2B"/>
<path d="M13.5988 49.1363L28.7395 30.9206L12.0958 29.9066L8.92785 32.9665L7.28687 31.3675L8.99384 29.7206L4.64091 29.4596V29.9366C4.64091 32.6755 5.09691 35.3995 5.99089 38.0124L7.40987 35.0725L9.51884 36.0265L7.17587 40.8714C8.71785 44.0243 10.8958 46.8413 13.5958 49.1483V49.1333L13.5988 49.1363ZM18.3657 31.7815L22.1966 33.1825L21.3686 35.2735L17.5377 33.8725L18.3657 31.7815ZM10.8838 39.0444C11.5318 37.7514 12.8818 37.0585 14.2858 37.0765C14.8377 37.0765 15.3867 37.2145 15.9117 37.4455C17.7567 38.3064 18.6537 40.4454 17.7717 42.2304C16.8747 44.0303 14.5888 44.6933 12.7438 43.8294C10.8988 42.9684 10.0018 40.8294 10.8838 39.0444Z" fill="#FF6B00"/>
<path d="M13.4788 16.4998H10.9708L12.1288 9.51891H14.5888C15.2907 9.51891 15.8727 9.6629 16.3377 9.9479C16.8027 10.2329 17.1327 10.6439 17.3217 11.1779C17.5137 11.7089 17.5467 12.3449 17.4237 13.0828C17.3067 13.7968 17.0697 14.4088 16.7187 14.9188C16.3677 15.4288 15.9147 15.8188 15.3657 16.0918C14.8167 16.3618 14.1868 16.4968 13.4758 16.4968L13.4788 16.4998ZM12.6568 15.2338H13.5628C14.0008 15.2338 14.3848 15.1528 14.7147 14.9878C15.0477 14.8228 15.3177 14.5708 15.5307 14.2318C15.7437 13.8898 15.8967 13.4548 15.9837 12.9239C16.0677 12.4199 16.0617 12.0089 15.9657 11.6969C15.8727 11.3819 15.6927 11.1509 15.4227 11.0039C15.1557 10.8569 14.8017 10.7819 14.3668 10.7819H13.3948L12.6538 15.2338H12.6568ZM18.3387 16.4998L19.4967 9.51891H24.2006L23.9966 10.7369H20.7687L20.4957 12.4019H23.4806L23.2766 13.6198H20.2917L20.0187 15.2878H23.2616L23.0576 16.5058H18.3387V16.4998ZM27.1105 16.4998H24.6026L25.7606 9.51891H28.2205C28.9225 9.51891 29.5045 9.6629 29.9695 9.9479C30.4345 10.2329 30.7645 10.6439 30.9535 11.1779C31.1455 11.7089 31.1785 12.3449 31.0555 13.0828C30.9385 13.7968 30.7015 14.4088 30.3505 14.9188C29.9995 15.4288 29.5465 15.8188 28.9975 16.0918C28.4485 16.3618 27.8185 16.4968 27.1075 16.4968L27.1105 16.4998ZM26.2886 15.2338H27.1945C27.6325 15.2338 28.0165 15.1528 28.3465 14.9878C28.6795 14.8228 28.9495 14.5708 29.1625 14.2318C29.3755 13.8898 29.5285 13.4548 29.6155 12.9239C29.6995 12.4199 29.6935 12.0089 29.5975 11.6969C29.5045 11.3819 29.3245 11.1509 29.0545 11.0039C28.7875 10.8569 28.4335 10.7819 27.9985 10.7819H27.0265L26.2856 15.2338H26.2886ZM32.7775 16.4998H31.1965L34.7664 9.51891H36.6684L37.9164 16.4998H36.3354L35.4864 11.1149H35.4324L32.7805 16.4998H32.7775ZM33.1404 13.7548H36.8754L36.6774 14.9068H32.9425L33.1404 13.7548Z" fill="white"/>
<path d="M6.17088 28.4485L7.32886 21.4677H10.0828C10.6108 21.4677 11.0428 21.5697 11.3818 21.7707C11.7238 21.9716 11.9608 22.2476 12.0988 22.6046C12.2368 22.9586 12.2698 23.3696 12.1948 23.8316C12.1168 24.2966 11.9488 24.7076 11.6908 25.0616C11.4328 25.4126 11.0998 25.6886 10.6888 25.8866C10.2778 26.0846 9.80382 26.1836 9.26383 26.1836H7.50886L7.70386 25.0016H9.22183C9.50683 25.0016 9.75283 24.9536 9.95382 24.8546C10.1578 24.7556 10.3198 24.6176 10.4398 24.4406C10.5598 24.2636 10.6378 24.0596 10.6738 23.8316C10.7128 23.5976 10.7008 23.3936 10.6378 23.2226C10.5748 23.0486 10.4578 22.9166 10.2868 22.8206C10.1188 22.7216 9.89382 22.6736 9.60883 22.6736H8.61284L7.64686 28.4485H6.17088ZM12.7438 28.4485L13.6168 23.2136H15.0687L14.1958 28.4485H12.7438ZM14.4927 22.5296C14.2768 22.5296 14.0998 22.4576 13.9588 22.3136C13.8208 22.1696 13.7638 21.9956 13.7878 21.7947C13.8118 21.5907 13.9108 21.4167 14.0818 21.2757C14.2528 21.1317 14.4447 21.0597 14.6607 21.0597C14.8767 21.0597 15.0537 21.1317 15.1887 21.2757C15.3237 21.4167 15.3807 21.5907 15.3597 21.7947C15.3357 21.9956 15.2397 22.1666 15.0687 22.3136C14.9007 22.4576 14.7087 22.5296 14.4927 22.5296ZM15.7257 28.4485L15.8667 27.5816L18.9507 24.4076L18.9657 24.3716H16.4907L16.6857 23.2136H20.9126L20.7626 24.1586L17.8407 27.2546L17.8257 27.2906H20.3217L20.1357 28.4485H15.7287H15.7257ZM21.6116 28.4485L21.7526 27.5816L24.8366 24.4076L24.8516 24.3716H22.3766L22.5716 23.2136H26.7986L26.6486 24.1586L23.7266 27.2546L23.7116 27.2906H26.2076L26.0216 28.4485H21.6146H21.6116ZM28.9945 28.5475C28.6615 28.5475 28.3765 28.4905 28.1305 28.3735C27.8905 28.2565 27.7135 28.0796 27.5995 27.8486C27.4855 27.6176 27.4585 27.3296 27.5155 26.9846C27.5665 26.6936 27.6595 26.4506 27.7975 26.2556C27.9385 26.0576 28.1095 25.8986 28.3135 25.7786C28.5145 25.6586 28.7395 25.5656 28.9855 25.5026C29.2345 25.4396 29.4895 25.3946 29.7535 25.3736C30.0595 25.3406 30.3055 25.3106 30.4975 25.2806C30.6895 25.2506 30.8335 25.2086 30.9295 25.1546C31.0255 25.0976 31.0825 25.0136 31.1035 24.9026V24.8816C31.1365 24.6686 31.0975 24.5006 30.9835 24.3836C30.8725 24.2636 30.6925 24.2036 30.4495 24.2036C30.1915 24.2036 29.9695 24.2606 29.7895 24.3746C29.6095 24.4886 29.4805 24.6326 29.4055 24.8066L28.0825 24.6986C28.1995 24.3806 28.3795 24.1046 28.6165 23.8736C28.8565 23.6396 29.1475 23.4596 29.4865 23.3336C29.8255 23.2076 30.2035 23.1416 30.6265 23.1416C30.9175 23.1416 31.1905 23.1746 31.4425 23.2436C31.6975 23.3126 31.9165 23.4176 32.0995 23.5616C32.2855 23.7056 32.4205 23.8886 32.5015 24.1136C32.5855 24.3356 32.6035 24.6026 32.5525 24.9146L31.9615 28.4455H30.5845L30.7075 27.7196H30.6655C30.5545 27.8846 30.4165 28.0285 30.2575 28.1515C30.0955 28.2745 29.9125 28.3705 29.7025 28.4425C29.4925 28.5115 29.2585 28.5445 29.0005 28.5445L28.9945 28.5475ZM29.5765 27.5456C29.7865 27.5456 29.9815 27.5036 30.1585 27.4196C30.3385 27.3326 30.4855 27.2186 30.6025 27.0716C30.7195 26.9276 30.7945 26.7626 30.8275 26.5766L30.9175 26.0216C30.8725 26.0516 30.8065 26.0786 30.7195 26.0996C30.6355 26.1236 30.5425 26.1446 30.4435 26.1656C30.3445 26.1836 30.2455 26.2016 30.1465 26.2166C30.0475 26.2316 29.9575 26.2436 29.8765 26.2586C29.7025 26.2826 29.5435 26.3246 29.4055 26.3786C29.2675 26.4326 29.1535 26.5076 29.0695 26.6006C28.9825 26.6906 28.9285 26.8046 28.9105 26.9426C28.8775 27.1406 28.9255 27.2906 29.0515 27.3956C29.1775 27.4976 29.3545 27.5486 29.5795 27.5486L29.5765 27.5456Z" fill="white"/>
</g>
</svg>
