<svg width="30" height="30" viewBox="0 0 30 30" fill="none" xmlns="http://www.w3.org/2000/svg">
<path d="M23.7723 7.63541C23.7723 8.11888 23.5802 8.58255 23.2384 8.92441C22.8965 9.26627 22.4328 9.45833 21.9494 9.45833C21.4659 9.45833 21.0022 9.26627 20.6604 8.92441C20.3185 8.58255 20.1265 8.11888 20.1265 7.63541C20.1265 7.15195 20.3185 6.68828 20.6604 6.34642C21.0022 6.00455 21.4659 5.8125 21.9494 5.8125C22.4328 5.8125 22.8965 6.00455 23.2384 6.34642C23.5802 6.68828 23.7723 7.15195 23.7723 7.63541ZM19.7619 0.416664C17.229 0.41821 14.8003 1.42508 13.0092 3.21611C11.2182 5.00714 10.2113 7.43585 10.2098 9.96875C10.2098 10.5331 10.2827 11.0771 10.3702 11.5787C10.383 11.6419 10.3804 11.7072 10.3627 11.7691C10.3449 11.8311 10.3125 11.8878 10.2681 11.9346L1.17542 21.0287C0.423221 21.7805 0.000420499 22.8003 0 23.8637V27.0312C0 28.44 1.14333 29.5833 2.55208 29.5833H6.19792C6.87477 29.5833 7.5239 29.3145 8.00251 28.8358C8.48112 28.3572 8.75 27.7081 8.75 27.0312V25.2083H11.3035C12.3098 25.2083 13.1265 24.3917 13.1265 23.3854V20.8333H15.6785C16.1506 20.8336 16.6044 20.6508 16.9444 20.3233C17.2844 19.9959 17.4841 19.5492 17.5015 19.0775C18.2248 19.2642 18.989 19.375 19.7619 19.375C22.2948 19.3735 24.7235 18.3666 26.5145 16.5755C28.3055 14.7845 29.3124 12.3558 29.314 9.82291C29.314 4.52771 25.0075 0.416664 19.7619 0.416664ZM12.3973 9.96875C12.3988 8.01601 13.1752 6.1437 14.556 4.76291C15.9368 3.38211 17.8091 2.60571 19.7619 2.60416C23.8481 2.60416 27.1265 5.78479 27.1265 9.82291C27.1249 11.7756 26.3485 13.648 24.9677 15.0288C23.5869 16.4095 21.7146 17.186 19.7619 17.1875C18.7702 17.1875 17.7494 16.9381 16.8379 16.5458C16.6714 16.4743 16.4898 16.4453 16.3093 16.4613C16.1289 16.4774 15.9552 16.538 15.804 16.6378C15.6527 16.7376 15.5287 16.8733 15.4429 17.0329C15.3571 17.1925 15.3123 17.3709 15.3125 17.5521V18.6458H12.7619C11.7556 18.6458 10.939 19.4625 10.939 20.4687V23.0208H8.38687C7.38062 23.0208 6.56396 23.8375 6.56396 24.8437V27.0312C6.56396 27.1279 6.52555 27.2207 6.45717 27.289C6.3888 27.3574 6.29607 27.3958 6.19937 27.3958H2.55354C2.45685 27.3958 2.36411 27.3574 2.29574 27.289C2.22737 27.2207 2.18896 27.1279 2.18896 27.0312V23.8637C2.18896 23.381 2.38146 22.9158 2.72271 22.5746L11.8169 13.4819C12.1096 13.1866 12.3268 12.8252 12.4502 12.4281C12.5736 12.0311 12.5995 11.6102 12.5256 11.201C12.4474 10.7947 12.4044 10.3824 12.3973 9.96875Z" fill="#767676"/>
</svg>
