<svg width="27" height="28" viewBox="0 0 27 28" fill="none" xmlns="http://www.w3.org/2000/svg">
<path d="M13.125 14C14.8655 14 16.5347 13.3086 17.7654 12.0779C18.9961 10.8472 19.6875 9.17798 19.6875 7.4375C19.6875 5.69702 18.9961 4.02782 17.7654 2.79711C16.5347 1.5664 14.8655 0.875 13.125 0.875C11.3845 0.875 9.71532 1.5664 8.48461 2.79711C7.2539 4.02782 6.5625 5.69702 6.5625 7.4375C6.5625 9.17798 7.2539 10.8472 8.48461 12.0779C9.71532 13.3086 11.3845 14 13.125 14ZM17.5 7.4375C17.5 8.59782 17.0391 9.71062 16.2186 10.5311C15.3981 11.3516 14.2853 11.8125 13.125 11.8125C11.9647 11.8125 10.8519 11.3516 10.0314 10.5311C9.21094 9.71062 8.75 8.59782 8.75 7.4375C8.75 6.27718 9.21094 5.16438 10.0314 4.34391C10.8519 3.52344 11.9647 3.0625 13.125 3.0625C14.2853 3.0625 15.3981 3.52344 16.2186 4.34391C17.0391 5.16438 17.5 6.27718 17.5 7.4375ZM26.25 24.9375C26.25 27.125 24.0625 27.125 24.0625 27.125H2.1875C2.1875 27.125 0 27.125 0 24.9375C0 22.75 2.1875 16.1875 13.125 16.1875C24.0625 16.1875 26.25 22.75 26.25 24.9375ZM24.0625 24.9288C24.0603 24.3906 23.7256 22.7719 22.2425 21.2887C20.8162 19.8625 18.1322 18.375 13.125 18.375C8.11563 18.375 5.43375 19.8625 4.0075 21.2887C2.52438 22.7719 2.19187 24.3906 2.1875 24.9288H24.0625Z" fill="#767676"/>
</svg>
