<svg width="25" height="28" viewBox="0 0 25 28" fill="none" xmlns="http://www.w3.org/2000/svg">
<path d="M24.2555 23.0647C25.0573 22.3367 25.1292 21.1554 24.5793 20.2649L23.3929 18.3622L23.3407 18.417C17.5658 24.477 7.80889 24.5565 1.55269 18.5947L1.49604 18.5407L0.462764 20.4615C-0.022281 21.3604 0.150944 22.5398 1.01049 23.2542C7.89445 28.9898 17.8352 28.9087 24.2555 23.0647ZM2.2439 17.1462C2.36101 17.2644 2.47812 17.3825 2.5985 17.4972C8.23156 22.8653 17.008 22.7937 22.2077 17.3373C22.3188 17.2207 22.4264 17.1008 22.5339 16.9808L12.401 0.695613C12.2553 0.4586 11.9941 0.314405 11.7218 0.316625C11.4494 0.318846 11.1999 0.467205 11.0733 0.706438L2.2439 17.1462ZM14.4511 14.1338C15.0296 13.5268 16.0032 13.5189 16.6299 14.1161C17.2566 14.7133 17.2956 15.6862 16.7171 16.2932C16.1386 16.9002 15.165 16.9082 14.5383 16.311C13.9116 15.7138 13.8727 14.7409 14.4511 14.1338ZM8.0019 16.3643C7.37522 15.7671 7.33626 14.7942 7.91473 14.1871C8.49319 13.5801 9.46684 13.5722 10.0935 14.1694C10.7202 14.7666 10.7592 15.7395 10.1807 16.3465C9.60223 16.9535 8.62859 16.9615 8.0019 16.3643ZM11.0086 9.80623C10.3819 9.20903 10.3429 8.23613 10.9214 7.62911C11.4999 7.02208 12.4735 7.01414 13.1002 7.61134C13.7269 8.20854 13.7658 9.18144 13.1874 9.78847C12.6089 10.3955 11.6353 10.4034 11.0086 9.80623Z" fill="white"/>
</svg>
