<svg width="22" height="26" viewBox="0 0 22 26" fill="none" xmlns="http://www.w3.org/2000/svg">
<path d="M21.6512 21.9839V1.3741C21.6512 0.618613 20.9413 0 20.0756 0H1.5746C0.708874 0 0 0.618613 0 1.3741V2.7482V21.9847V24.0459C0 24.8023 0.708874 25.42 1.5746 25.42H20.0756C20.6521 25.42 21.1562 25.1427 21.4302 24.7329H3.14919C2.28347 24.7329 1.5746 24.1152 1.5746 23.3597H20.0756C20.9423 23.3588 21.6512 22.7411 21.6512 21.9839ZM5.37869 18.3842C5.09758 18.6295 4.64129 18.6295 4.36019 18.3842C4.0801 18.1397 4.0801 17.7407 4.36121 17.4954L8.84972 13.5775L9.86822 14.4663L5.37869 18.3842ZM16.3061 18.4393C16.024 18.6855 15.5677 18.6837 15.2856 18.4393L7.65299 11.7776C7.61938 11.7483 7.60207 11.7119 7.57559 11.679C6.47052 12.1376 4.88675 11.8079 3.70835 10.7795C2.30384 9.55294 2.01968 7.81265 3.07281 6.89273C4.12593 5.9737 6.12015 6.22257 7.52466 7.44824C8.70306 8.47659 9.08092 9.85958 8.55538 10.8239C8.59408 10.8462 8.63584 10.8604 8.67047 10.8906L16.3041 17.5514C16.5842 17.7967 16.5862 18.1949 16.3061 18.4393ZM19.1009 8.85256L15.8305 11.7065C15.805 11.7288 15.7745 11.7421 15.745 11.7563C14.6287 12.6229 13.4829 12.6291 12.5499 12.1056C12.5316 12.1252 12.5245 12.1492 12.5021 12.1669L11.7524 12.822L10.7339 11.9341L11.4856 11.2781C11.506 11.2603 11.5335 11.2532 11.5559 11.2381C10.955 10.4231 10.9621 9.42229 11.9561 8.44993C11.9724 8.42504 11.9857 8.39749 12.0122 8.37616L15.2826 5.5213C15.4333 5.38886 15.6788 5.38886 15.8295 5.5213C15.9802 5.65284 15.9802 5.86615 15.8275 5.9977L12.666 8.75657L13.2109 9.23297L16.3734 6.47321C16.5221 6.34167 16.7675 6.34167 16.9183 6.47321C17.067 6.60387 17.067 6.81629 16.9183 6.94873L13.7568 9.70848L14.3038 10.1849L17.4652 7.42602C17.6159 7.29447 17.8594 7.29358 18.0101 7.42513C18.1608 7.55667 18.1608 7.76999 18.0101 7.90153L14.8487 10.6604L15.3936 11.1359L18.555 8.37616C18.7057 8.24461 18.9512 8.24461 19.0999 8.37616C19.2516 8.50681 19.2516 8.72101 19.1009 8.85256Z" fill="white"/>
</svg>
