<svg width="13" height="12" viewBox="0 0 13 12" fill="none" xmlns="http://www.w3.org/2000/svg">
<g clip-path="url(#clip0_191_1293)">
<path d="M12.6547 8.83125C12.6344 4.25625 8.42966 0.39375 3.47341 0.375L0.467163 11.625L12.6547 8.83125Z" fill="#F6DA77"/>
<path d="M11.0703 9.1875L11.4969 9.1125C11.2937 5.55 8.53123 1.81875 3.16873 1.44375L3.10779 1.81875C7.21091 2.30625 10.5625 5.38125 11.0703 9.1875Z" fill="#860D16"/>
<path d="M11.4766 9.1125L12.6344 8.85C12.6547 4.275 8.42969 0.375 3.43281 0.375L3.14844 1.44375C7.92188 1.85625 11.0297 4.74375 11.4766 9.1125Z" fill="#C98E52"/>
<path d="M2.7422 7.81875C2.39689 7.81875 2.0922 7.70625 1.84845 7.48125C1.74689 7.3875 1.74689 7.2375 1.84845 7.1625C1.95001 7.06875 2.11251 7.06875 2.19376 7.1625C2.47814 7.425 2.98595 7.425 3.27032 7.1625C3.41251 7.03125 3.49376 6.8625 3.49376 6.675C3.49376 6.4875 3.41251 6.31875 3.27032 6.1875C3.16876 6.09375 3.16876 5.94375 3.27032 5.86875C3.37189 5.775 3.53439 5.775 3.61564 5.86875C3.85939 6.09375 3.98126 6.375 3.98126 6.69375C3.98126 7.0125 3.85939 7.29375 3.61564 7.51875C3.3922 7.6875 3.0672 7.81875 2.7422 7.81875ZM7.84064 4.10625V4.2C7.82032 4.25625 7.80001 4.29375 7.73907 4.33125C7.67814 4.36875 7.6172 4.36875 7.57657 4.35C7.41407 4.3125 7.25157 4.35 7.10939 4.425C6.9672 4.5 6.86564 4.63125 6.82501 4.78125C6.74376 5.08125 6.9672 5.4 7.2922 5.475C7.41407 5.49375 7.49532 5.625 7.4547 5.71875C7.43439 5.83125 7.31251 5.90625 7.19064 5.86875C6.78439 5.775 6.4797 5.49375 6.37814 5.11875C6.33751 4.96875 6.33751 4.81875 6.37814 4.6875C6.43907 4.425 6.62189 4.21875 6.86564 4.06875C7.10939 3.91875 7.39376 3.88125 7.67814 3.9375C7.73907 3.975 7.82032 4.03125 7.84064 4.10625ZM8.9172 9.54375H8.81564C8.7547 9.525 8.71407 9.50625 8.69376 9.45C8.67345 9.4125 8.65314 9.35625 8.67345 9.3C8.71407 9.16875 8.69376 9.01875 8.61251 8.8875C8.53126 8.75625 8.40939 8.6625 8.24689 8.625C7.9422 8.55 7.59689 8.7375 7.51564 9C7.49532 9.09375 7.35314 9.16875 7.25157 9.13125C7.1297 9.09375 7.06876 9 7.10939 8.8875C7.21095 8.55 7.51564 8.26875 7.90158 8.2125C8.04376 8.19375 8.20626 8.19375 8.34845 8.23125C8.61251 8.2875 8.83595 8.45625 8.95782 8.6625C9.10001 8.8875 9.12032 9.13125 9.05939 9.375C9.05939 9.46875 8.99845 9.525 8.9172 9.54375Z" fill="#83BF4F"/>
<path d="M7.53595 6.7875C7.82033 7.55625 7.37345 8.38125 6.52033 8.64375C5.6672 8.90625 4.75314 8.49375 4.48908 7.725C4.2047 6.95625 4.65158 6.13125 5.5047 5.86875C6.33751 5.60625 7.25158 6.01875 7.53595 6.7875ZM10.075 6.9375C10.2375 7.40625 9.97345 7.89375 9.46564 8.0625C8.95783 8.2125 8.40939 7.96875 8.24689 7.5C8.08439 7.03125 8.34845 6.54375 8.85626 6.375C9.34376 6.225 9.8922 6.46875 10.075 6.9375ZM5.89064 3.5625C6.11408 4.18125 5.74845 4.875 5.05783 5.08125C4.3672 5.2875 3.61564 4.95 3.3922 4.33125C3.16876 3.7125 3.53439 3.01875 4.22501 2.8125C4.91564 2.60625 5.6672 2.94375 5.89064 3.5625ZM6.98751 10.125L5.0172 10.575C4.83439 10.0875 5.20001 9.50625 5.72814 9.375C6.37814 9.225 6.8047 9.65625 6.98751 10.125ZM3.98126 8.8125C4.22501 9.45 3.83908 10.1625 3.12814 10.3688C2.4172 10.5938 1.64533 10.2375 1.40158 9.58125C1.15783 8.94375 1.54376 8.23125 2.2547 8.025C2.96564 7.81875 3.73751 8.175 3.98126 8.8125Z" fill="#B21725"/>
<path d="M3.14844 1.44375C4.225 1.4625 5.30156 1.65 6.31719 2.025C7.33281 2.38125 8.2875 2.94375 9.05937 3.675C9.83125 4.3875 10.4406 5.26875 10.8469 6.20625C11.2531 7.14375 11.4563 8.1375 11.4766 9.13125C11.2937 8.15625 11.0094 7.2 10.5625 6.31875C10.1156 5.4375 9.52656 4.6125 8.775 3.9375C8.04375 3.24375 7.15 2.7 6.19531 2.30625C5.24063 1.875 4.20469 1.6125 3.14844 1.44375Z" fill="#E0A763"/>
<path d="M3.41129 2.51925L3.81348 2.148L4.21566 2.51925L3.81348 2.8905L3.41129 2.51925ZM6.03688 3.57075L6.43907 3.1995L6.84126 3.57075L6.43907 3.942L6.03688 3.57075ZM2.62195 4.959L3.02413 4.58775L3.42632 4.959L3.02413 5.33025L2.62195 4.959ZM4.01132 6.02531L4.41351 5.65407L4.8157 6.02531L4.41351 6.39656L4.01132 6.02531ZM7.62634 6.07313L8.02852 5.70188L8.43071 6.07313L8.02852 6.44438L7.62634 6.07313ZM9.95801 8.72644L10.3602 8.35519L10.7624 8.72644L10.3602 9.09769L9.95801 8.72644ZM3.98471 8.37225L4.3869 8.001L4.78909 8.37225L4.3869 8.7435L3.98471 8.37225ZM4.27254 9.73181L4.67473 9.36056L5.07691 9.73181L4.67473 10.1031L4.27254 9.73181ZM0.881165 10.9202L1.28335 10.5489L1.68554 10.9202L1.28335 11.2914L0.881165 10.9202ZM2.83766 3.249L3.13931 2.97057L3.44095 3.249L3.13931 3.52744L2.83766 3.249ZM5.39338 5.22994L5.69502 4.9515L5.99666 5.22994L5.69502 5.50838L5.39338 5.22994ZM8.14024 5.24156L8.44188 4.96313L8.74352 5.24156L8.44188 5.52L8.14024 5.24156ZM2.7292 6.78075L3.03084 6.50231L3.33248 6.78075L3.03084 7.05919L2.7292 6.78075ZM1.49501 7.89375L1.79665 7.61531L2.09829 7.89356L1.79665 8.172L1.49501 7.89375ZM1.02173 10.2159L1.32337 9.9375L1.62501 10.2159L1.32337 10.4944L1.02173 10.2159ZM3.63107 10.3661L3.93271 10.0877L4.23435 10.3663L3.93271 10.6446L3.63107 10.3661ZM6.25179 9.06488L6.55343 8.78644L6.85507 9.06488L6.55343 9.34331L6.25179 9.06488ZM7.52416 9.543L7.82581 9.26456L8.12745 9.543L7.82581 9.82125L7.52416 9.543ZM9.21701 8.46938L9.51865 8.19113L9.82029 8.46956L9.51865 8.748L9.21701 8.46938Z" fill="#FFAB41"/>
</g>
<defs>
<clipPath id="clip0_191_1293">
<rect width="13" height="12" fill="white"/>
</clipPath>
</defs>
</svg>
