<svg width="20" height="20" viewBox="0 0 20 20" fill="none" xmlns="http://www.w3.org/2000/svg">
<path d="M19.5161 4.0986C19.2058 3.29655 18.7584 2.56975 18.1988 1.95886C17.6389 1.34616 16.9787 0.85925 16.2542 0.524616C15.5029 0.176245 14.6971 -0.002072 13.8835 1.81642e-05C12.7422 1.81642e-05 11.6286 0.348889 10.6609 1.00787C10.4294 1.1655 10.2095 1.33865 10.0011 1.5273C9.79279 1.33865 9.57286 1.1655 9.34135 1.00787C8.37364 0.348889 7.26009 1.81642e-05 6.11876 1.81642e-05C5.2969 1.81642e-05 4.50052 0.175746 3.74811 0.524616C3.02118 0.860566 2.36601 1.34382 1.80345 1.95886C1.24319 2.56906 0.795642 3.29604 0.486167 4.0986C0.164371 4.93331 0 5.8197 0 6.73193C0 7.59248 0.157426 8.4892 0.469961 9.40144C0.731565 10.1638 1.10661 10.9546 1.58583 11.7531C2.34518 13.0168 3.38928 14.3347 4.68572 15.6708C6.83412 17.8855 8.96167 19.4153 9.05196 19.4773L9.60064 19.8701C9.84372 20.0433 10.1563 20.0433 10.3993 19.8701L10.948 19.4773C11.0383 19.4127 13.1635 17.8855 15.3143 15.6708C16.6107 14.3347 17.6548 13.0168 18.4141 11.7531C18.8934 10.9546 19.2707 10.1638 19.53 9.40144C19.8426 8.4892 20 7.59248 20 6.73193C20.0023 5.8197 19.8379 4.93331 19.5161 4.0986Z" fill="#98989F"/>
</svg>
