<svg width="20" height="16" viewBox="0 0 20 16" fill="none" xmlns="http://www.w3.org/2000/svg">
<path d="M18.2353 15.5H1.76471C0.764706 15.5 0 14.75 0 13.7692V2.23077C0 1.25 0.764706 0.5 1.76471 0.5H18.2353C19.2353 0.5 20 1.25 20 2.23077V13.7692C20 14.75 19.2353 15.5 18.2353 15.5ZM1.76471 1.65385C1.41176 1.65385 1.17647 1.88462 1.17647 2.23077V13.7692C1.17647 14.1154 1.41176 14.3462 1.76471 14.3462H18.2353C18.5882 14.3462 18.8235 14.1154 18.8235 13.7692V2.23077C18.8235 1.88462 18.5882 1.65385 18.2353 1.65385H1.76471Z" fill="#98989F"/>
<path d="M0.588135 2.80762H19.4117V6.26916H0.588135V2.80762ZM2.35284 8.57685H2.94108V9.73069H2.35284V8.57685ZM3.52931 8.57685H4.11755V9.73069H3.52931V8.57685ZM4.70578 8.57685H5.29402V9.73069H4.70578V8.57685ZM6.47049 8.57685H7.05872V9.73069H6.47049V8.57685ZM7.64696 8.57685H8.23519V9.73069H7.64696V8.57685ZM8.82343 8.57685H9.41166V9.73069H8.82343V8.57685ZM10.5881 8.57685H11.1764V9.73069H10.5881V8.57685ZM11.7646 8.57685H12.3528V9.73069H11.7646V8.57685ZM12.9411 8.57685H13.5293V9.73069H12.9411V8.57685ZM14.7058 8.57685H15.294V9.73069H14.7058V8.57685ZM15.8823 8.57685H16.4705V9.73069H15.8823V8.57685ZM17.0587 8.57685H17.647V9.73069H17.0587V8.57685Z" fill="#98989F"/>
</svg>
