<svg width="20" height="20" viewBox="0 0 20 20" fill="none" xmlns="http://www.w3.org/2000/svg">
<path d="M7.18013 10.0019C4.9139 10.0019 3.0772 7.76323 3.0772 5.00097C3.0772 2.23872 4.9139 0 7.18013 0C9.44636 0 11.2831 2.23872 11.2831 5.00097C11.2831 7.76323 9.44636 10.0019 7.18013 10.0019ZM5.71526 11.8773H8.64501C9.02324 11.8773 9.39507 11.9242 9.75087 12.0062C9.68356 12.729 9.98807 13.3971 10.4497 13.7566C9.91755 14.1707 9.59381 14.9912 9.80857 15.839C9.93679 16.343 10.1099 16.8353 10.3343 17.308C10.5586 17.7808 10.8215 18.2106 11.1164 18.5974C11.6196 19.2576 12.3857 19.3163 12.9499 18.9373V18.9724C12.9499 19.3319 13.0364 19.6952 13.2031 20H0.952008C0.42632 20.0039 0 19.4843 0 18.8435C0 14.9951 2.55792 11.8773 5.71526 11.8773ZM13.9756 8.52509C13.9756 8.2516 14.1199 8.00546 14.3378 7.94686C14.6744 7.85309 15.027 7.8023 15.386 7.8023C15.745 7.8023 16.0976 7.85309 16.4342 7.94686C16.6521 8.00546 16.7964 8.2516 16.7964 8.52509V9.72064C17.0496 9.85348 17.29 10.0215 17.5112 10.2207L18.3093 9.66203C18.5049 9.52529 18.7485 9.55654 18.9023 9.7558C19.1459 10.0723 19.3607 10.4278 19.5466 10.8185C19.7325 11.2092 19.8768 11.6155 19.9794 12.0297C20.0467 12.2914 19.9441 12.5649 19.7486 12.7017L18.9472 13.2643C18.96 13.4206 18.9696 13.5808 18.9696 13.7449C18.9696 13.909 18.9632 14.0652 18.9472 14.2254L19.7486 14.788C19.9441 14.9248 20.0435 15.1983 19.9794 15.46C19.8736 15.8742 19.7293 16.2805 19.5466 16.6712C19.3639 17.0619 19.1459 17.4174 18.9023 17.7339C18.7485 17.9332 18.5017 17.9644 18.3093 17.8277L17.5112 17.269C17.29 17.4682 17.0528 17.6362 16.7964 17.7691V18.9646C16.7964 19.2381 16.6521 19.4843 16.4342 19.5429C16.0976 19.6366 15.745 19.6874 15.386 19.6874C15.027 19.6874 14.6744 19.6366 14.3378 19.5429C14.1199 19.4843 13.9756 19.2381 13.9756 18.9646V17.7691C13.7192 17.6362 13.4756 17.4682 13.2544 17.2651L12.4627 17.8238C12.2671 17.9605 12.0235 17.9293 11.8697 17.73C11.626 17.4135 11.4113 17.058 11.2254 16.6673C11.0395 16.2766 10.8952 15.8703 10.7926 15.4561C10.7253 15.1944 10.8279 14.9209 11.0234 14.7841L11.8184 14.2254C11.8055 14.0652 11.7959 13.905 11.7959 13.741C11.7959 13.5769 11.8023 13.4167 11.8184 13.2565L11.0202 12.6978C10.8247 12.561 10.7253 12.2875 10.7894 12.0258C10.8952 11.6116 11.0362 11.2053 11.2222 10.8146C11.4081 10.4239 11.6228 10.0684 11.8664 9.75189C12.0203 9.55264 12.2639 9.52138 12.4594 9.65813L13.2544 10.2168C13.4756 10.0176 13.7192 9.84957 13.9756 9.71282V8.52509ZM16.9278 13.741C16.9278 12.7056 16.2386 11.8656 15.386 11.8656C14.5334 11.8656 13.8442 12.7056 13.8442 13.741C13.8442 14.7763 14.5334 15.6163 15.386 15.6163C16.2386 15.6163 16.9278 14.7763 16.9278 13.741Z" fill="#98989F"/>
</svg>
